<svg aria-hidden="true" style="position: absolute; width: 0; height: 0; overflow: hidden;" version="1.1" xmlns="http://www.w3.org/2000/svg" xmlns:xlink="http://www.w3.org/1999/xlink">
<defs>
<symbol id="icon-cart" viewBox="0 0 32 32">
<path d="M10.31 20.688h0.001c0.001 0 0.002-0 0.004-0h16.997c0.419 0 0.786-0.278 0.901-0.68l3.75-13.125c0.081-0.283 0.024-0.587-0.153-0.822s-0.454-0.373-0.748-0.373h-22.915l-0.67-3.016c-0.095-0.429-0.476-0.734-0.915-0.734h-5.625c-0.518 0-0.938 0.42-0.938 0.938s0.42 0.938 0.938 0.938h4.873c0.119 0.534 3.207 14.432 3.385 15.232-0.996 0.433-1.695 1.427-1.695 2.581 0 1.551 1.262 2.813 2.812 2.813h17c0.518 0 0.938-0.42 0.938-0.938s-0.42-0.937-0.938-0.937h-17c-0.517 0-0.937-0.421-0.937-0.937s0.419-0.936 0.935-0.937zM29.82 7.563l-3.214 11.25h-15.541l-2.5-11.25h21.255z"></path>
<path d="M9.375 27.25c0 1.551 1.262 2.813 2.813 2.813s2.813-1.262 2.813-2.813c0-1.551-1.262-2.813-2.813-2.813s-2.813 1.262-2.813 2.813zM12.188 26.312c0.517 0 0.938 0.421 0.938 0.938s-0.421 0.937-0.938 0.937c-0.517 0-0.937-0.421-0.937-0.937s0.421-0.938 0.937-0.938z"></path>
<path d="M22.625 27.25c0 1.551 1.262 2.813 2.813 2.813s2.813-1.262 2.813-2.813c0-1.551-1.262-2.813-2.813-2.813s-2.813 1.262-2.813 2.813zM25.438 26.312c0.517 0 0.938 0.421 0.938 0.938s-0.421 0.937-0.938 0.937c-0.517 0-0.937-0.421-0.937-0.937s0.421-0.938 0.937-0.938z"></path>
</symbol>
<symbol id="icon-close" viewBox="0 0 32 32">
<path stroke-linejoin="miter" stroke-linecap="butt" stroke-miterlimit="4" stroke-width="5.8182" d="M2.909 2.909l26.182 26.182"></path>
<path stroke-linejoin="miter" stroke-linecap="butt" stroke-miterlimit="4" stroke-width="5.8182" d="M2.909 29.091l26.182-26.182"></path>
</symbol>
<symbol id="icon-filter" viewBox="0 0 32 32">
<path d="M26.275 0h-20.55c-3.157 0-5.725 2.568-5.725 5.725v20.551c0 3.157 2.568 5.725 5.725 5.725h20.551c3.157 0 5.725-2.568 5.725-5.725v-20.55c0-3.157-2.568-5.725-5.725-5.725zM30.125 26.275c0 2.123-1.727 3.85-3.85 3.85h-20.55c-2.123 0-3.85-1.727-3.85-3.85v-20.55c0-2.123 1.727-3.85 3.85-3.85h20.551c2.123 0 3.85 1.727 3.85 3.85v20.55z"></path>
<path d="M27.046 7.029h-14.279c-0.393-1.166-1.495-2.008-2.792-2.008s-2.399 0.842-2.792 2.008h-2.229c-0.518 0-0.938 0.42-0.938 0.938s0.42 0.938 0.938 0.938h2.229c0.393 1.166 1.495 2.008 2.792 2.008s2.399-0.842 2.792-2.008h14.279c0.518 0 0.938-0.42 0.938-0.938s-0.42-0.938-0.938-0.938zM9.975 9.037c-0.59 0-1.071-0.48-1.071-1.071s0.48-1.071 1.071-1.071c0.59 0 1.071 0.48 1.071 1.071s-0.48 1.071-1.071 1.071z"></path>
<path d="M27.046 15.063h-2.229c-0.393-1.166-1.495-2.008-2.792-2.008s-2.399 0.842-2.792 2.008h-14.279c-0.518 0-0.938 0.42-0.938 0.938s0.42 0.938 0.938 0.938h14.279c0.393 1.166 1.495 2.008 2.792 2.008s2.399-0.842 2.792-2.008h2.229c0.518 0 0.938-0.42 0.938-0.938s-0.42-0.938-0.938-0.938zM22.025 17.071c-0.59 0-1.071-0.48-1.071-1.071s0.48-1.071 1.071-1.071c0.59 0 1.071 0.48 1.071 1.071s-0.48 1.071-1.071 1.071z"></path>
<path d="M27.046 23.096h-10.262c-0.392-1.166-1.495-2.008-2.792-2.008s-2.399 0.842-2.792 2.008h-6.245c-0.518 0-0.938 0.42-0.938 0.938s0.42 0.938 0.938 0.938h6.245c0.393 1.166 1.495 2.008 2.792 2.008s2.399-0.842 2.792-2.008h10.262c0.518 0 0.938-0.42 0.938-0.938s-0.42-0.938-0.938-0.938zM13.992 25.104c-0.59 0-1.071-0.48-1.071-1.071s0.48-1.071 1.071-1.071 1.071 0.48 1.071 1.071c0 0.59-0.48 1.071-1.071 1.071z"></path>
</symbol>
<symbol id="icon-logo" viewBox="0 0 196 32">
<path d="M2.857 26.197c-1.611 0-2.857-1.21-2.857-2.641v-20.583c0-1.504 1.319-2.642 2.857-2.642h6.191c5.494 0 8.241 3.523 8.241 7.191 0 2.569-1.648 4.146-3.846 5.21 2.271 0.916 4.542 2.568 4.542 5.759 0 4.294-3.444 7.707-9.084 7.707l-6.044-0zM9.341 10.457c1.282 0 2.82-0.881 2.82-2.862 0-1.393-0.659-2.641-2.564-2.641h-4.468v5.503l4.212-0zM5.128 15.153v6.383h4.102c2.418 0 3.627-1.21 3.627-3.119 0-2.091-1.465-3.264-3.407-3.264h-4.322z"></path>
<path d="M39.959 26.197h-9.707c-1.795 0-3.406-0.624-3.406-2.605v-20.657c0-1.284 1.208-2.605 2.82-2.605h9.926c1.393 0 2.564 1.101 2.564 2.385 0 1.322-1.172 2.275-2.564 2.275h-7.618v5.907h6.923c1.281 0 2.528 0.99 2.528 2.312 0 1.32-1.1 2.348-2.528 2.348h-6.923v5.979h7.984c1.356 0 2.564 1.028 2.564 2.276 0 1.322-1.171 2.385-2.564 2.385z"></path>
<path d="M62.154 17.575c0 5.576-1.977 8.953-8.497 8.953-1.393 0-4.213-0.147-4.213-2.532 0-1.468 1.356-2.313 2.381-2.313 0.843 0 1.319 0.221 2.234 0.221 2.454 0 2.967-1.651 2.967-4.329v-15.226c0-1.283 1.099-2.348 2.564-2.348 1.354 0 2.564 1.101 2.564 2.348l-0 15.227z"></path>
<path d="M122.331 24.216c0 1.247-1.173 2.311-2.528 2.311-1.391 0-2.6-1.064-2.6-2.311v-12.623l-4.175 8.219c-0.476 0.953-1.393 1.393-2.417 1.393-0.989 0-1.904-0.441-2.381-1.393l-4.175-8.219v12.623c0 1.247-1.209 2.311-2.637 2.311-1.393 0-2.491-1.064-2.491-2.311v-21.794c0-1.394 1.135-2.421 2.637-2.421 1.172 0 2.088 0.477 2.564 1.431l6.519 12.95 6.519-12.987c0.513-1.065 1.501-1.395 2.527-1.395 1.502 0 2.638 1.101 2.638 2.421v21.794z"></path>
<path d="M151.264 23.372l-7.142-20.877c-0.513-1.467-1.247-2.495-3.004-2.495s-2.49 1.065-2.967 2.495l-7.142 20.877c-0.073 0.184-0.108 0.624-0.108 0.808 0 1.394 1.207 2.348 2.636 2.348 0.879 0 2.052-0.661 2.417-1.724 0 0 5.018-16.622 5.164-17.759 0.146 1.137 5.129 17.759 5.129 17.759 0.367 1.027 1.537 1.724 2.49 1.724 1.502 0 2.638-0.954 2.638-2.348 0.001-0.183-0.036-0.624-0.11-0.808z"></path>
<path d="M90.577 23.372l-7.143-20.877c-0.513-1.467-1.246-2.495-3.003-2.495s-2.491 1.065-2.968 2.495l-7.142 20.877c-0.073 0.184-0.109 0.624-0.109 0.808 0 1.394 1.208 2.348 2.636 2.348 0.88 0 2.052-0.661 2.418-1.724 0 0 5.018-16.622 5.165-17.759 0.146 1.137 5.128 17.759 5.128 17.759 0.366 1.027 1.538 1.724 2.49 1.724 1.501 0 2.638-0.954 2.638-2.348 0-0.183-0.036-0.624-0.11-0.808z"></path>
<path d="M169.612 16.216c-0.769-0.329-1.684-0.659-2.673-0.989-3.589-1.101-7.473-2.312-7.473-7.632 0-4.733 3.297-7.595 8.5-7.595 2.16 0 7.36 0.551 7.36 3.303 0 1.21-0.951 2.311-2.562 2.311-0.66 0-1.173-0.22-1.796-0.404-0.695-0.257-1.502-0.551-2.783-0.551-1.796 0-3.481 0.624-3.481 2.788 0 1.614 0.917 2.165 1.538 2.458 0.953 0.477 1.831 0.771 2.638 0.991 3.59 1.137 7.509 2.385 7.509 7.593 0 5.102-3.882 8.037-9.121 8.037-2.71 0-7.839-0.954-7.839-3.524 0-1.174 1.063-2.311 2.418-2.311 0.549 0 1.136 0.183 1.831 0.441 0.879 0.294 2.052 0.734 3.626 0.734 2.528 0 3.809-1.138 3.809-3.156 0-1.651-0.842-2.201-1.502-2.495z"></path>
<path d="M193.164 26.376c1.284 0 2.528 1.027 2.528 2.348s-1.098 2.311-2.528 2.311h-9.754c-1.428 0-2.528-0.991-2.528-2.311s1.247-2.348 2.528-2.348h9.754z"></path>
</symbol>
</defs>
</svg>
